<?xml version="1.0" standalone="no"?>
<!DOCTYPE svg PUBLIC "-//W3C//DTD SVG 20010904//EN"
 "http://www.w3.org/TR/2001/REC-SVG-20010904/DTD/svg10.dtd">
<svg version="1.0" xmlns="http://www.w3.org/2000/svg"
 width="700.000000pt" height="700.000000pt" viewBox="0 0 700.000000 700.000000"
 preserveAspectRatio="xMidYMid meet">
<metadata>
Created by potrace 1.11, written by Peter Selinger 2001-2013
</metadata>
<g transform="translate(0.000000,700.000000) scale(0.100000,-0.100000)"
fill="#000000" stroke="none">
<path d="M3320 6989 c-123 -16 -158 -21 -215 -35 -633 -155 -1126 -633 -1294
-1254 -11 -41 -22 -88 -25 -105 -3 -16 -10 -59 -16 -95 -17 -105 -18 -154 -19
-801 l-1 -615 -435 0 c-239 1 -436 -1 -436 -4 -1 -3 -2 -922 -3 -2043 l-1
-2037 2625 2 2625 3 1 2030 c0 1117 -1 2035 -3 2040 -2 6 -157 10 -438 10
l-435 -1 -1 601 c-1 783 0 762 -55 990 -27 112 -93 287 -142 379 -50 95 -177
285 -212 316 -3 3 -29 32 -58 64 -217 241 -520 422 -852 510 -52 14 -115 28
-140 31 -25 2 -56 7 -70 11 -39 8 -338 11 -400 3z m388 -593 c279 -53 519
-197 703 -422 32 -40 59 -76 59 -80 0 -4 6 -15 14 -23 58 -68 148 -305 172
-456 12 -81 13 -1325 0 -1326 -6 -1 -531 -3 -1167 -3 l-1156 -2 2 651 c2 616
3 655 23 745 21 100 51 186 98 285 102 216 326 435 556 543 208 97 471 131
696 88z"/>
</g>
</svg>
